<?xml version="1.0" encoding="UTF-8" standalone="no"?>
<!-- Generator: Adobe Illustrator 19.0.0, SVG Export Plug-In . SVG Version: 6.00 Build 0)  -->

<svg
   version="1.1"
   id="Capa_1"
   x="0px"
   y="0px"
   viewBox="0 0 490.273 490.273"
   style="enable-background:new 0 0 490.273 490.273;"
   xml:space="preserve"
   sodipodi:docname="edit.svg"
   inkscape:version="1.1.2 (0a00cf5339, 2022-02-04, custom)"
   xmlns:inkscape="http://www.inkscape.org/namespaces/inkscape"
   xmlns:sodipodi="http://sodipodi.sourceforge.net/DTD/sodipodi-0.dtd"
   xmlns="http://www.w3.org/2000/svg"
   xmlns:svg="http://www.w3.org/2000/svg"><defs
   id="defs77" /><sodipodi:namedview
   id="namedview75"
   pagecolor="#ffffff"
   bordercolor="#666666"
   borderopacity="1.0"
   inkscape:pageshadow="2"
   inkscape:pageopacity="0.0"
   inkscape:pagecheckerboard="0"
   showgrid="false"
   inkscape:zoom="1.6276646"
   inkscape:cx="204.8948"
   inkscape:cy="245.44369"
   inkscape:window-width="1920"
   inkscape:window-height="991"
   inkscape:window-x="-9"
   inkscape:window-y="-9"
   inkscape:window-maximized="1"
   inkscape:current-layer="Capa_1" />
<g
   id="g42"
   style="fill:#ffffff;fill-opacity:1">
	<g
   id="g10"
   style="fill:#ffffff;fill-opacity:1">
		<g
   id="g8"
   style="fill:#ffffff;fill-opacity:1">
			<path
   d="M313.548,152.387l-230.8,230.9c-6.7,6.7-6.7,17.6,0,24.3c3.3,3.3,7.7,5,12.1,5s8.8-1.7,12.1-5l230.8-230.8     c6.7-6.7,6.7-17.6,0-24.3C331.148,145.687,320.248,145.687,313.548,152.387z"
   id="path2"
   style="fill:#ffffff;fill-opacity:1" />
			<path
   d="M431.148,191.887c4.4,0,8.8-1.7,12.1-5l25.2-25.2c29.1-29.1,29.1-76.4,0-105.4l-34.4-34.4     c-14.1-14.1-32.8-21.8-52.7-21.8c-19.9,0-38.6,7.8-52.7,21.8l-25.2,25.2c-6.7,6.7-6.7,17.6,0,24.3l115.6,115.6     C422.348,190.187,426.748,191.887,431.148,191.887z M352.948,45.987c7.6-7.6,17.7-11.8,28.5-11.8c10.7,0,20.9,4.2,28.5,11.8     l34.4,34.4c15.7,15.7,15.7,41.2,0,56.9l-13.2,13.2l-91.4-91.4L352.948,45.987z"
   id="path4"
   style="fill:#ffffff;fill-opacity:1" />
			<path
   d="M162.848,467.187l243.5-243.5c6.7-6.7,6.7-17.6,0-24.3s-17.6-6.7-24.3,0l-239.3,239.5l-105.6,14.2l14.2-105.6     l228.6-228.6c6.7-6.7,6.7-17.6,0-24.3c-6.7-6.7-17.6-6.7-24.3,0l-232.6,232.8c-2.7,2.7-4.4,6.1-4.9,9.8l-18,133.6     c-0.7,5.3,1.1,10.6,4.9,14.4c3.2,3.2,7.6,5,12.1,5c0.8,0,1.5-0.1,2.3-0.2l133.6-18     C156.748,471.587,160.248,469.887,162.848,467.187z"
   id="path6"
   style="fill:#ffffff;fill-opacity:1" />
		</g>
	</g>
	<g
   id="g12"
   style="fill:#ffffff;fill-opacity:1">
	</g>
	<g
   id="g14"
   style="fill:#ffffff;fill-opacity:1">
	</g>
	<g
   id="g16"
   style="fill:#ffffff;fill-opacity:1">
	</g>
	<g
   id="g18"
   style="fill:#ffffff;fill-opacity:1">
	</g>
	<g
   id="g20"
   style="fill:#ffffff;fill-opacity:1">
	</g>
	<g
   id="g22"
   style="fill:#ffffff;fill-opacity:1">
	</g>
	<g
   id="g24"
   style="fill:#ffffff;fill-opacity:1">
	</g>
	<g
   id="g26"
   style="fill:#ffffff;fill-opacity:1">
	</g>
	<g
   id="g28"
   style="fill:#ffffff;fill-opacity:1">
	</g>
	<g
   id="g30"
   style="fill:#ffffff;fill-opacity:1">
	</g>
	<g
   id="g32"
   style="fill:#ffffff;fill-opacity:1">
	</g>
	<g
   id="g34"
   style="fill:#ffffff;fill-opacity:1">
	</g>
	<g
   id="g36"
   style="fill:#ffffff;fill-opacity:1">
	</g>
	<g
   id="g38"
   style="fill:#ffffff;fill-opacity:1">
	</g>
	<g
   id="g40"
   style="fill:#ffffff;fill-opacity:1">
	</g>
</g>
<g
   id="g44">
</g>
<g
   id="g46">
</g>
<g
   id="g48">
</g>
<g
   id="g50">
</g>
<g
   id="g52">
</g>
<g
   id="g54">
</g>
<g
   id="g56">
</g>
<g
   id="g58">
</g>
<g
   id="g60">
</g>
<g
   id="g62">
</g>
<g
   id="g64">
</g>
<g
   id="g66">
</g>
<g
   id="g68">
</g>
<g
   id="g70">
</g>
<g
   id="g72">
</g>
</svg>
