<?xml version="1.0" encoding="UTF-8" standalone="no"?>
<!-- Generator: Adobe Illustrator 19.0.0, SVG Export Plug-In . SVG Version: 6.00 Build 0)  -->

<svg
   version="1.1"
   id="Layer_1"
   x="0px"
   y="0px"
   viewBox="0 0 189.948 189.948"
   style="enable-background:new 0 0 189.948 189.948;"
   xml:space="preserve"
   sodipodi:docname="shopping-basket.svg"
   inkscape:version="1.1.2 (0a00cf5339, 2022-02-04, custom)"
   xmlns:inkscape="http://www.inkscape.org/namespaces/inkscape"
   xmlns:sodipodi="http://sodipodi.sourceforge.net/DTD/sodipodi-0.dtd"
   xmlns="http://www.w3.org/2000/svg"
   xmlns:svg="http://www.w3.org/2000/svg"><defs
   id="defs49" /><sodipodi:namedview
   id="namedview47"
   pagecolor="#ffffff"
   bordercolor="#666666"
   borderopacity="1.0"
   inkscape:pageshadow="2"
   inkscape:pageopacity="0.0"
   inkscape:pagecheckerboard="0"
   showgrid="false"
   inkscape:zoom="4.2011498"
   inkscape:cx="77.835834"
   inkscape:cy="94.854984"
   inkscape:window-width="2400"
   inkscape:window-height="1261"
   inkscape:window-x="-2409"
   inkscape:window-y="-9"
   inkscape:window-maximized="1"
   inkscape:current-layer="Layer_1" />
<g
   id="g14"
   style="fill:#3b0597;fill-opacity:1">
	<g
   id="g12"
   style="fill:#3b0597;fill-opacity:1">
		<g
   id="g10"
   style="fill:#3b0597;fill-opacity:1">
			<path
   d="M164.613,56.66L132.259,9.34c-2.371-3.467-7.106-4.357-10.576-1.986c-3.469,2.374-4.357,7.106-1.986,10.576     l26.437,38.659H43.815L70.247,17.93c2.374-3.469,1.484-8.202-1.986-10.576C64.792,4.98,60.057,5.873,57.688,9.34L25.334,56.66     C11.248,57.375,0,69.026,0,83.29c0,7.033,2.787,13.69,7.74,18.682l10.708,63.311c0.378,10.343,8.91,18.641,19.341,18.641h114.367     c10.431,0,18.963-8.296,19.341-18.641l10.708-63.308c4.953-4.994,7.743-11.651,7.743-18.684     C189.947,69.029,178.699,57.375,164.613,56.66z M170.373,92.179l-2.252,1.811l-11.722,69.306l-0.107,1.268     c0,2.28-1.854,4.139-4.137,4.139H37.789c-2.283,0-4.139-1.856-4.139-4.139L21.821,93.992l-2.25-1.811     c-2.77-2.229-4.357-5.471-4.357-8.894c0-6.333,5.148-11.481,11.476-11.481h136.558c6.328,0,11.476,5.151,11.476,11.481     C174.73,86.713,173.143,89.955,170.373,92.179z"
   id="path2"
   style="fill:#3b0597;fill-opacity:1" />
			<path
   d="M131.793,91.687c-4.202,0-7.609,3.406-7.609,7.609v53.333c0,4.202,3.406,7.609,7.609,7.609s7.609-3.406,7.609-7.609     V99.295C139.401,95.093,135.995,91.687,131.793,91.687z"
   id="path4"
   style="fill:#3b0597;fill-opacity:1" />
			<path
   d="M94.975,91.687c-4.202,0-7.609,3.406-7.609,7.609v53.333c0,4.202,3.406,7.609,7.609,7.609     c4.202,0,7.609-3.406,7.609-7.609V99.295C102.584,95.093,99.177,91.687,94.975,91.687z"
   id="path6"
   style="fill:#3b0597;fill-opacity:1" />
			<path
   d="M58.152,91.687c-4.202,0-7.609,3.406-7.609,7.609v53.333c0,4.202,3.406,7.609,7.609,7.609s7.609-3.406,7.609-7.609     V99.295C65.763,95.093,62.355,91.687,58.152,91.687z"
   id="path8"
   style="fill:#3b0597;fill-opacity:1" />
		</g>
	</g>
</g>
<g
   id="g16">
</g>
<g
   id="g18">
</g>
<g
   id="g20">
</g>
<g
   id="g22">
</g>
<g
   id="g24">
</g>
<g
   id="g26">
</g>
<g
   id="g28">
</g>
<g
   id="g30">
</g>
<g
   id="g32">
</g>
<g
   id="g34">
</g>
<g
   id="g36">
</g>
<g
   id="g38">
</g>
<g
   id="g40">
</g>
<g
   id="g42">
</g>
<g
   id="g44">
</g>
</svg>
